<svg width="74" height="74" fill="none" xmlns="http://www.w3.org/2000/svg">
    <path d="M48.532 43.83c-2.537 4.395-6.779 6.919-11.622 6.919-4.844 0-9.078-2.522-11.622-6.92a2.768 2.768 0 0 1 4.792-2.768c.898 1.553 2.978 4.152 6.83 4.152s5.932-2.602 6.83-4.152a2.77 2.77 0 0 1 4.624-.334 2.768 2.768 0 0 1 .168 3.102Zm13.288-6.92A24.91 24.91 0 1 1 36.91 12a24.937 24.937 0 0 1 24.91 24.91Zm-5.536 0A19.374 19.374 0 1 0 36.91 56.284 19.395 19.395 0 0 0 56.284 36.91Zm-27.677-.923a3.69 3.69 0 1 0 0-7.38 3.69 3.69 0 0 0 0 7.38Zm16.606-7.38a3.69 3.69 0 1 0 0 7.38 3.69 3.69 0 0 0 0-7.38Z" fill="#7F6300"/>
    <path fill-rule="evenodd" clip-rule="evenodd" d="m29.907 35.75.112-.044a3.678 3.678 0 0 0 1.656-1.359 3.679 3.679 0 0 0 .622-2.05 3.688 3.688 0 0 0-3.69-3.69 3.69 3.69 0 1 0 1.3 7.143Zm11.76-4.475a3.692 3.692 0 0 0 5.596 4.09 3.69 3.69 0 1 0-5.596-4.09Zm-11.995 9.263a2.773 2.773 0 0 0-2.555-.753 2.767 2.767 0 0 0-1.83 4.044l.002.002.05.085a15.222 15.222 0 0 0 1.941 2.623 13.734 13.734 0 0 0 2.008 1.777 12.838 12.838 0 0 0 4.923 2.161c.87.18 1.77.271 2.693.272h.006a13.19 13.19 0 0 0 4.144-.657 12.8 12.8 0 0 0 3.918-2.107 13.317 13.317 0 0 0 1.568-1.445 14.318 14.318 0 0 0 1.443-1.829 15.146 15.146 0 0 0 .6-.97 2.768 2.768 0 0 0-4.844-2.68v.002a9.728 9.728 0 0 1-1.121 1.555 8.4 8.4 0 0 1-1.001.956 7.265 7.265 0 0 1-4.254 1.627 7.861 7.861 0 0 1-.453.012h-.012a8.404 8.404 0 0 1-.629-.025 7.248 7.248 0 0 1-3.9-1.483c-1.063-.81-1.787-1.795-2.238-2.556l-.05-.088-.003-.003a2.765 2.765 0 0 0-.406-.52Zm26.612-3.622a19.411 19.411 0 0 1-2.693 9.833l-.007.011-.048.082a19.41 19.41 0 0 1-2.933 3.761 19.39 19.39 0 0 1-13.693 5.681 19.373 19.373 0 0 1-10.764-35.483 19.376 19.376 0 0 1 10.758-3.265h.006A19.374 19.374 0 0 1 56.284 36.91v.006Zm4.585 6.808a24.986 24.986 0 0 1-2.584 5.977 24.971 24.971 0 0 1-3.761 4.823 24.91 24.91 0 0 1-17.608 7.295h-.006a24.906 24.906 0 0 1-23.014-15.377A24.91 24.91 0 0 1 36.91 12a24.931 24.931 0 0 1 20.703 11.076 24.94 24.94 0 0 1 4.206 13.834v.006c0 2.315-.323 4.605-.95 6.808Zm12.95-6.828v.014A36.91 36.91 0 1 1 36.91 0h.014A36.938 36.938 0 0 1 73.82 36.896Z" fill="#FFC700"/>
</svg>
